<svg width="87" height="86" viewBox="0 0 87 86" fill="none" xmlns="http://www.w3.org/2000/svg">
<path d="M59.3103 63.6314C66.5263 65.0897 72.4267 67.4763 76.209 70.3405C69.5617 78.3284 60.0903 83.8762 49.3283 85.4432C49.8795 84.9724 50.4083 84.4514 50.9083 83.8855C53.0669 81.4417 54.9157 78.0245 56.4263 73.9817C57.5706 70.9192 58.5424 67.4347 59.3103 63.6314ZM26.8324 63.6589C27.5994 67.4514 28.5706 70.9266 29.712 73.9817C31.2226 78.0245 33.0715 81.4417 35.2301 83.8855C35.7291 84.4502 36.2559 84.971 36.8059 85.441C26.0754 83.8774 16.6279 78.358 9.98415 70.4071C13.7377 67.5316 19.6226 65.1313 26.8324 63.6589ZM43.1419 62.0843C47.381 62.0843 51.4333 62.3829 55.2036 62.9243C54.4802 66.4799 53.5741 69.71 52.5242 72.52C51.1157 76.2895 49.4891 79.1957 47.7883 81.1213C46.0848 83.0496 44.4847 83.8105 43.0692 83.8105C41.6538 83.8104 40.0546 83.0495 38.3512 81.1213C36.6502 79.1957 35.0227 76.2897 33.6143 72.52C32.5663 69.7152 31.6607 66.4921 30.938 62.9444C34.7482 62.3899 38.8494 62.0843 43.1419 62.0843ZM24.875 44.8076C24.9654 49.991 25.3909 54.9571 26.1019 59.5514C18.3759 61.117 11.8485 63.7326 7.46807 67.0826C3.09287 60.6849 0.391572 53.0497 0 44.8076H24.875ZM57.0978 44.8076C57.0081 49.7644 56.5993 54.4813 55.933 58.8168C51.8858 58.2286 47.5832 57.9124 43.1419 57.9123C38.6486 57.9123 34.2965 58.2352 30.2075 58.8368C29.5394 54.4959 29.1314 49.772 29.0416 44.8076H57.0978ZM7.44382 18.3954C11.8363 21.7379 18.3704 24.3457 26.0997 25.9045C25.3899 30.4951 24.9654 35.4569 24.875 40.6356H0C0.391022 32.4086 3.08268 24.7859 7.44382 18.3954ZM30.2054 26.6148C34.2742 27.2099 38.602 27.5308 43.0703 27.5308C47.537 27.5308 51.8639 27.2107 55.932 26.6159C56.5992 30.9542 57.008 35.6748 57.0978 40.6356H29.0416C29.1314 35.6745 29.538 30.9533 30.2054 26.6148ZM43.0692 1.63373C44.4847 1.63374 46.0848 2.39338 47.7883 4.32181C49.4893 6.24756 51.1156 9.15442 52.5242 12.9243C53.5729 15.7312 54.4785 18.9573 55.2016 22.5083C51.4117 23.0561 47.3356 23.3589 43.0703 23.3589C38.8043 23.3589 34.7276 23.0553 30.9369 22.5072C31.6599 18.9566 32.5657 15.731 33.6143 12.9243C35.0227 9.1544 36.6502 6.24756 38.3512 4.32181C40.0545 2.3937 41.6538 1.63381 43.0692 1.63373ZM36.8049 0.00210741C36.2549 0.472036 35.7289 0.994044 35.2301 1.55881C33.0715 4.00252 31.2226 7.41971 29.712 11.4626C28.5694 14.5208 27.5966 17.9997 26.8292 21.7969C19.6166 20.3314 13.7235 17.9392 9.95565 15.0688C16.6007 7.1003 26.06 1.56819 36.8049 0.00210741ZM49.3293 0C60.0762 1.56502 69.5368 7.09904 76.1827 15.0688C72.4148 17.9385 66.5218 20.3315 59.3081 21.7969C58.5408 17.9998 57.5689 14.5208 56.4263 11.4626C54.9159 7.41965 53.0669 4.00252 50.9083 1.55881C50.4084 0.992866 49.8805 0.470696 49.3293 0Z" fill="#B5B5B1"/>
<path d="M61.2663 40.6499C61.1758 35.4664 60.7503 30.5003 60.0394 25.9061C67.7653 24.3404 74.2927 21.7249 78.6732 18.3749C83.0484 24.7725 85.7497 32.4078 86.1412 40.6499H61.2663ZM78.6974 67.0621C74.3049 63.7195 67.7709 61.1117 60.0415 59.5529C60.7513 54.9623 61.1758 50.0006 61.2663 44.8219H86.1412C85.7502 53.0488 83.0586 60.6716 78.6974 67.0621Z" fill="#B5B5B1"/>
</svg>
