<svg width="87" height="87" viewBox="0 0 87 87" fill="none" xmlns="http://www.w3.org/2000/svg">
<path d="M69.3222 18.2664H17.6778V0H69.3222V18.2664ZM72.5034 42.4142C73.9667 42.4142 75.1924 41.8713 76.1805 40.7855C77.1686 39.6997 77.6644 38.3575 77.6679 36.759C77.6713 35.1604 77.1755 33.8164 76.1805 32.7268C75.1855 31.6372 73.9598 31.0943 72.5034 31.0981C71.0471 31.1019 69.8197 31.6448 68.8212 32.7268C67.8227 33.8088 67.3287 35.1529 67.339 36.759C67.3493 38.3651 67.8434 39.7072 68.8212 40.7855C69.799 41.8638 71.0264 42.4067 72.5034 42.4142ZM64.1577 81.3448V55.6814H22.8423V81.3448H64.1577ZM69.3222 87H17.6778V64.3791H0V33.9314C0 30.7267 0.993292 28.0405 2.97988 25.8727C4.96646 23.7048 7.41612 22.619 10.3289 22.6152H76.6711C79.5977 22.6152 82.0508 23.7011 84.0304 25.8727C86.0101 28.0443 87 30.7286 87 33.9257V64.3791H69.3222V87Z" fill="#3D3D31"/>
</svg>
